<svg width="167" height="162" viewBox="0 0 167 162" fill="none" xmlns="http://www.w3.org/2000/svg">
<g clip-path="url(#clip0)">
<rect x="2" y="2" width="88.4686" height="88.383" stroke="#3145F2" stroke-width="4" stroke-dasharray="15 15"/>
<rect x="45.1715" y="47.4043" width="60" height="60" rx="8" fill="#1A7343"/>
<path d="M66.5917 82.6643V84.4043H56.4317V70.4043H66.3117V72.1443H58.4317V76.4443H65.4517V78.1443H58.4317V82.6643H66.5917ZM76.0757 84.4043L73.0157 80.3443L69.9157 84.4043H67.7757L71.9557 78.9843L67.9757 73.8043H70.1157L73.0357 77.6243L75.9357 73.8043H78.0357L74.0357 78.9843L78.2557 84.4043H76.0757ZM89.5793 79.1643C89.5793 79.3109 89.566 79.5043 89.5393 79.7443H80.9393C81.0593 80.6776 81.466 81.4309 82.1593 82.0043C82.866 82.5643 83.7393 82.8443 84.7793 82.8443C86.046 82.8443 87.066 82.4176 87.8393 81.5643L88.8993 82.8043C88.4193 83.3643 87.8193 83.7909 87.0993 84.0843C86.3927 84.3776 85.5993 84.5243 84.7193 84.5243C83.5993 84.5243 82.606 84.2976 81.7393 83.8443C80.8727 83.3776 80.1993 82.7309 79.7193 81.9043C79.2527 81.0776 79.0193 80.1443 79.0193 79.1043C79.0193 78.0776 79.246 77.1509 79.6993 76.3243C80.166 75.4976 80.7993 74.8576 81.5993 74.4043C82.4127 73.9376 83.326 73.7043 84.3393 73.7043C85.3527 73.7043 86.2527 73.9376 87.0393 74.4043C87.8393 74.8576 88.4593 75.4976 88.8993 76.3243C89.3527 77.1509 89.5793 78.0976 89.5793 79.1643ZM84.3393 75.3243C83.4193 75.3243 82.646 75.6043 82.0193 76.1643C81.406 76.7243 81.046 77.4576 80.9393 78.3643H87.7393C87.6327 77.4709 87.266 76.7443 86.6393 76.1843C86.026 75.6109 85.2593 75.3243 84.3393 75.3243ZM92.2454 69.5643H94.1654V84.4043H92.2454V69.5643Z" fill="white"/>
<g clip-path="url(#clip1)">
<path d="M166.644 119.578C166.652 126.177 164.297 132.51 160.095 137.186L153.509 144.485C150.014 148.351 145.275 150.518 140.337 150.505H92.2242C90.1692 150.505 88.5033 148.659 88.5033 146.382C88.5197 141.658 91.6531 137.66 95.8708 136.98L114.55 134.011L83.8519 99.9903C81.3249 97.0972 81.3924 92.4817 84.003 89.6812C86.5537 86.9447 90.6036 86.9447 93.1544 89.6812L109.899 108.238C107.372 105.345 107.439 100.729 110.05 97.9286C112.601 95.1921 116.651 95.1921 119.201 97.9286L121.062 99.9905C118.535 97.0974 118.602 92.4819 121.213 89.6814C123.764 86.9449 127.814 86.9449 130.364 89.6814L132.225 91.7433C131.017 90.4066 130.324 88.6036 130.29 86.7123V86.6712C130.262 84.7059 130.962 82.8137 132.225 81.4342C134.794 78.5879 138.958 78.5879 141.527 81.4342L160.095 102.011C164.296 106.671 166.652 112.991 166.644 119.578Z" fill="#FACF91"/>
<path d="M118.271 115.454C118.268 116.003 118.083 116.531 117.75 116.938L109.899 108.238C108.684 106.889 107.99 105.07 107.964 103.165L117.75 114.011C118.076 114.406 118.261 114.919 118.271 115.454Z" fill="#BE9C6C"/>
<path d="M127.574 105.145C127.57 105.694 127.385 106.222 127.053 106.629L121.062 99.9901C119.847 98.6421 119.153 96.8229 119.127 94.918L127.053 103.701C127.378 104.097 127.563 104.61 127.574 105.145Z" fill="#BE9C6C"/>
<path d="M133.565 93.2274L132.225 91.7429C131.017 90.4062 130.324 88.6032 130.29 86.7119L133.565 90.2995C134.277 91.1189 134.281 92.4121 133.565 93.2274Z" fill="#BE9C6C"/>
</g>
</g>
<defs>
<clipPath id="clip0">
<rect width="166.644" height="161.804" fill="white"/>
</clipPath>
<clipPath id="clip1">
<rect width="84.6443" height="93.8043" fill="white" transform="translate(82 68)"/>
</clipPath>
</defs>
</svg>
