<svg width="193" height="310" viewBox="0 0 394 510" fill="none" xmlns="http://www.w3.org/2000/svg">
<g id="&#208;&#148;&#208;&#181;&#208;&#178;&#209;&#131;&#209;&#136;&#208;&#186;&#208;&#176;">
<g id="Person / Woman / 3">
<g id="&#208;&#161;&#209;&#130;&#209;&#131;&#208;&#187;" clip-path="url(#clip0)">
<path id="Fill 1" fill-rule="evenodd" clip-rule="evenodd" d="M226.239 331.163V332.419C226.239 342.905 218.105 351.398 208.079 351.398H65.8243C43.8816 351.398 26.9954 330.345 30.0236 306.755L46.0839 175.314C47.4746 164.428 56.0445 156.327 66.1717 156.327H108.333C118.454 156.327 127.023 164.428 128.422 175.314L144.482 306.755C144.605 307.694 144.692 308.633 144.743 309.564L144.83 309.549C144.83 309.549 147.8 331.163 175.414 331.163H226.239Z" fill="#9C9C9C"/>
<path id="Fill 6" fill-rule="evenodd" clip-rule="evenodd" d="M186.319 512.709H66.3542C61.7596 512.709 58 508.949 58 504.355C58 499.76 61.7596 496 66.3542 496H186.319C190.913 496 194.673 499.76 194.673 504.355C194.673 508.949 190.913 512.709 186.319 512.709Z" fill="#7387A0"/>
<path id="Fill 8" fill-rule="evenodd" clip-rule="evenodd" d="M120 510H132V350H120V510Z" fill="#7387A0"/>
<path id="Fill 10" fill-rule="evenodd" clip-rule="evenodd" d="M167.77 350.892L125.586 370.103L83.4021 350.892H167.77Z" fill="#7387A0"/>
</g>
<g id="Girl / Head / 1">
<g id="Group 23">
<path id="Hair" d="M82.7069 64.2711C54.1607 68.2534 66.1204 101.132 74.1437 118.884C83.5616 139.721 75.3119 153.692 75.3119 153.692L31.1859 138.025C47.3809 117.429 29.4954 105.959 33.8984 81.4023C37.848 59.3741 59.2864 49.4354 72.8318 49.904C79.5931 50.1379 85.1264 51.8792 89.5068 54.1118C89.6734 54.1966 89.8323 54.2874 89.9836 54.3835C97.9859 46.166 109.062 41.2545 121.864 41.2545C148.191 41.2545 171.845 62.026 171.845 89.6065C171.845 117.187 150.503 139.545 124.176 139.545C97.8487 139.545 76.5065 117.187 76.5065 89.6065C76.5065 80.1802 78.7295 71.5492 82.7069 64.2711Z" fill="#19141E"/>
<path id="Fill 5" fill-rule="evenodd" clip-rule="evenodd" d="M128.833 140.864C128.833 140.864 119.043 141.153 114.871 138.874L128.313 147.313L128.833 140.864Z" fill="#CF3E83"/>
<g id="Face color">
<path id="Face" d="M165.327 103.968C163.859 115.326 160.051 131.331 150.649 137.583C145.66 140.899 136.575 141.308 128.831 140.861L127.059 162.854L101.788 152.452C101.788 152.452 104.219 128.181 105.272 118.876C100.192 114.273 91.5378 112.138 91.5227 104.318C91.5227 101.608 93.1049 96.9215 98.9494 96.9064C106.793 96.8988 105.672 106.302 105.672 106.302C106.644 106.679 107.618 106.657 108.59 106.31C116.356 105.988 137.957 102.736 152.644 77.6398C154.358 86.0874 157.92 96.6168 165.327 103.968Z" fill="#ECA9A9"/>
</g>
<path id="Fill 9" fill-rule="evenodd" clip-rule="evenodd" d="M150.113 106.281L155.715 119.863L149.216 119.732L150.113 106.281Z" fill="#405FD3"/>
<path id="Fill 11" fill-rule="evenodd" clip-rule="evenodd" d="M144.148 106.87C144.009 109.583 142.413 111.697 140.584 111.592C138.756 111.486 137.385 109.202 137.525 106.488C137.666 103.775 139.261 101.661 141.09 101.767C142.919 101.872 144.288 104.157 144.148 106.87Z" fill="#0D0B6D"/>
<path id="Fill 13" fill-rule="evenodd" clip-rule="evenodd" d="M161.324 106.437C161.184 109.15 159.589 111.264 157.76 111.158C155.931 111.053 154.561 108.768 154.701 106.055C154.841 103.342 156.436 101.227 158.265 101.332C160.094 101.438 161.463 103.723 161.324 106.437Z" fill="#0D0B6D"/>
<path id="Stroke 15" d="M147.622 126.238C147.622 126.238 143.387 127.605 139.143 122.886" stroke="#1C295E" stroke-width="3"/>
<path id="Fill 17" opacity="0.402786" fill-rule="evenodd" clip-rule="evenodd" d="M128.816 140.864C128.816 140.864 119.028 141.153 114.855 138.874L128.296 147.313L128.816 140.864Z" fill="black"/>
</g>
</g>
<g id="Girl / Body / 2">
<g id="Group 24">
<path id="Fill 6_2" fill-rule="evenodd" clip-rule="evenodd" d="M89.4809 264.353L84.2496 264.276C84.2496 264.276 84.2572 264.194 84.264 264.02C86.0658 264.148 87.8078 264.254 89.4809 264.353Z" fill="#C83820"/>
<g id="Sweater color">
<path id="Sweater" d="M196.075 321.042L178.806 323.206L150.992 279.705L149.977 265.246L107.605 264.618L89.5186 264.353H89.4808C87.8077 264.254 86.0657 264.148 84.2646 264.02C61.4847 262.43 29.9228 258 27.7577 245.736C23.8285 223.524 53.5507 180.418 57.0635 175.421C57.283 175.111 57.3958 174.944 57.3958 174.944C62.3773 167.828 67.3898 162.294 72.0684 159.349C81.1683 153.618 89.7003 152.36 97.8084 152.384L99.9804 136.644L133.057 141.209L131.255 154.291C140.968 155.223 147.577 157.122 153.762 162.8C173.62 181.031 175.082 249.31 175.082 249.31L196.075 321.042Z" fill="#CE3D29"/>
</g>
<path id="Fill 10_2" fill-rule="evenodd" clip-rule="evenodd" d="M107.605 264.618V264.92C107.605 264.92 100.019 264.936 89.5184 264.353L107.605 264.618Z" fill="#C83820"/>
<path id="Stroke 12" opacity="0.201149" d="M149.369 265.071C151.797 234.226 168.608 227.704 156.495 193.111" stroke="black" stroke-width="3"/>
<path id="Fill 14" fill-rule="evenodd" clip-rule="evenodd" d="M177.968 303.23L114.8 295.949C112.731 295.71 111.369 293.677 111.936 291.673L136.895 203.492C137.346 201.899 138.886 200.868 140.532 201.057L203.699 208.338C205.768 208.576 207.13 210.61 206.562 212.614L181.604 300.794C181.153 302.388 179.613 303.419 177.968 303.23Z" fill="#18181C"/>
<path id="iPad" d="M121.875 270.277C121.995 270.309 122.117 270.342 122.24 270.377C126.628 271.574 131.114 272.299 137.353 271.477C141.366 270.952 144.816 270.266 144.777 269.626C144.667 268.008 142.719 267.645 142.719 267.645L138.972 267.826L135.366 267.612C135.366 267.612 151.929 264.48 151.929 263.994C151.878 262.286 149.159 261.593 149.159 261.593C149.159 261.593 154.855 260.687 154.79 259.781C154.634 257.477 152.091 257.302 152.091 257.302C152.091 257.302 152.797 256.693 152.726 256.13C152.447 253.858 148.395 253.483 146.466 253.205C146.466 253.205 139.904 253.115 137.949 252.629C132.808 251.345 129.748 250.199 127.829 249.241L140.655 203.926C141.106 202.332 142.647 201.301 144.292 201.49L207.459 208.772C209.528 209.009 210.89 211.044 210.323 213.047L185.365 301.227C184.913 302.821 183.374 303.852 181.728 303.663L118.56 296.383C116.492 296.143 115.129 294.11 115.696 292.107L121.875 270.277Z" fill="#FCBDA4"/>
<g id="Skin color">
<path id="Path" d="M195.775 321.079C199.745 325.751 204.579 331.559 205.283 332.942C206.505 335.343 208.765 347.226 208.658 349.575C208.55 351.922 201.508 362.473 201.508 362.473C197.139 361.402 199.992 355.954 199.992 355.954C199.992 355.954 196.079 359.263 194.452 359.207C179.129 358.685 179.95 350.927 180.313 349.955C181.126 347.773 185.217 350.268 185.217 350.268C185.217 350.268 177.353 334.314 179.246 323.151L195.775 321.079Z" fill="#ECA9A9"/>
<path id="Path_2" d="M149.159 261.593C149.159 261.593 151.878 262.286 151.929 263.994C151.929 264.48 135.366 267.612 135.366 267.612L138.972 267.826L142.719 267.645C142.719 267.645 144.667 268.008 144.777 269.626C144.816 270.266 141.366 270.952 137.353 271.477C131.114 272.299 126.628 271.574 122.24 270.377C121.871 270.273 121.515 270.182 121.172 270.092C116.654 268.907 114.641 268.687 108.83 265.521C106.253 264.117 102.454 261.334 100.869 259.923L105.056 244.428L110.829 242.455C110.829 242.455 113.509 241.405 118.034 240.57C120.875 240.046 123.648 240.254 126.58 239.937L124.914 246.041C124.727 246.176 124.512 246.635 124.35 246.811C124.474 246.914 124.596 247.03 124.739 247.16C125.936 248.254 128.201 250.195 137.949 252.629C139.903 253.115 146.466 253.205 146.466 253.205C148.395 253.483 152.447 253.858 152.726 256.13C152.797 256.693 152.091 257.302 152.091 257.302C152.091 257.302 154.634 257.477 154.79 259.781C154.855 260.687 149.159 261.593 149.159 261.593Z" fill="#ECA9A9"/>
</g>
<path id="Stroke 4" opacity="0.148065" d="M188.345 328.976C188.345 328.976 190.495 337.098 197.874 339.629C200.455 340.514 199.811 350.962 206.135 349.712" stroke="black" stroke-width="3"/>
<path id="Fill 20" fill-rule="evenodd" clip-rule="evenodd" d="M147.073 209.705C146.576 211.268 145.514 212.325 144.702 212.067C143.89 211.809 143.634 210.332 144.132 208.769C144.629 207.206 145.691 206.149 146.503 206.407C147.315 206.666 147.57 208.142 147.073 209.705Z" fill="#020101"/>
<path id="Stroke 22" opacity="0.200498" d="M83.4452 199.228L67.5015 225.628L107.143 241.313" stroke="black" stroke-width="3"/>
</g>
</g>
<g id="Girl / Legs / 2">
<g id="Group 15">
<g id="Shoes">
<path id="Shoes_2" fill-rule="evenodd" clip-rule="evenodd" d="M318.902 406.182L311.096 390.82L292.311 393.65L317.863 435.535L373.908 398.339C354.618 394.036 318.902 406.182 318.902 406.182ZM231.137 487.15L233.091 470.095L215.925 462.125L213.388 510.972L281.159 510.855C267.491 496.68 231.137 487.15 231.137 487.15Z" fill="#0D0B6D"/>
</g>
<g id="Skin color_2">
<path id="Skin" fill-rule="evenodd" clip-rule="evenodd" d="M313.074 392.999L294.035 396.975L304.997 414.561L320.783 404.939L313.074 392.999ZM233.111 473.574L215.104 466.417L214.551 487.056L232.957 487.732L233.111 473.574Z" fill="#E576C6"/>
</g>
<g id="Pants">
<path id="Pants_2" d="M260.323 376.708L251.003 477.869H207.836L209.752 330.989L127.358 331.556C103.853 331.556 81.1183 311.37 82.7482 287.909L85.3109 264.024L211.139 226.851C234.433 221.584 242.509 228.542 257.611 255.425L324.29 392.104L287.66 416.582L260.323 376.708Z" fill="#2F2F3D"/>
</g>
<g id="Overlay">
<path id="Fill 13_2" opacity="0.150484" fill-rule="evenodd" clip-rule="evenodd" d="M221.651 272.721L127.358 331.556L209.752 330.989L207.836 477.869H251.003L265.802 317.233C269.453 288.005 251.161 272.721 221.651 272.721Z" fill="#18181C"/>
</g>
</g>
</g>
</g>
</g>
<defs>
<clipPath id="clip0">
<rect width="98.284" height="178.191" fill="white" transform="translate(29.6714 156.327) scale(2)"/>
</clipPath>
</defs>
</svg>
