<svg width="149" height="230" viewBox="0 0 149 230" fill="none" xmlns="http://www.w3.org/2000/svg">
<path d="M30.6137 203.411L23.0344 195.192L34.0229 181.069L47.2154 192.515L42.4575 202.563" stroke="#19141E" stroke-width="15"/>
<path d="M112.923 202.733L106.129 193.855L118.366 180.799L130.454 193.404L124.795 202.975" stroke="#19141E" stroke-width="15"/>
<path d="M118.501 143.467L113.054 103.531" stroke="#19141E" stroke-width="27" stroke-linecap="round"/>
<path d="M31.5062 142.25L37.2484 102.357" stroke="#19141E" stroke-width="27" stroke-linecap="round"/>
<path fill-rule="evenodd" clip-rule="evenodd" d="M95.6855 119.987H80.1783C77.8675 119.987 75.9944 118.114 75.9944 115.803V100.296C75.9944 97.9853 77.8675 96.1122 80.1783 96.1122H95.6855C97.9959 96.1122 99.869 97.9853 99.869 100.296V115.803C99.869 118.114 97.9959 119.987 95.6855 119.987Z" fill="#19141E"/>
<path fill-rule="evenodd" clip-rule="evenodd" d="M91.7293 119.987H80.1783C77.8675 119.987 75.9944 118.114 75.9944 115.803V100.296C75.9944 97.9853 77.8675 96.1122 80.1783 96.1122H91.7293C94.0397 96.1122 95.9128 97.9853 95.9128 100.296V115.803C95.9128 118.114 94.0397 119.987 91.7293 119.987Z" fill="#405FD3"/>
<path fill-rule="evenodd" clip-rule="evenodd" d="M37.6963 114.746C37.5874 114.749 37.4782 114.75 37.3686 114.75C30.1604 114.75 24.3171 108.907 24.3171 101.699C24.3171 94.4904 30.1604 88.6467 37.3686 88.6467C38.9083 88.6467 40.3856 88.9133 41.7571 89.4029C48.1884 77.8307 60.5374 70 74.7153 70C88.2399 70 100.1 77.1251 106.747 87.8263C108.065 87.3783 109.478 87.1354 110.948 87.1354C118.156 87.1354 124 92.979 124 100.187C124 107.043 118.714 112.664 111.995 113.197C109.326 131.393 93.6524 145.362 74.7153 145.362C56.3199 145.362 41.0034 132.18 37.6963 114.746ZM15.1475 151.155C14.7516 145.851 18.7308 141.231 24.0349 140.835L37.3605 139.84C42.6647 139.445 47.2852 143.424 47.6808 148.728L49.9473 179.103C50.3429 184.407 46.3641 189.027 41.0603 189.423L27.7344 190.418C22.4302 190.813 17.8097 186.834 17.4141 181.53L15.1475 151.155ZM111.736 139.188C106.417 139.159 102.082 143.448 102.054 148.767L101.892 179.225C101.864 184.544 106.152 188.879 111.471 188.907L124.834 188.979C130.152 189.007 134.487 184.718 134.515 179.399L134.677 148.94C134.706 143.622 130.417 139.287 125.098 139.259L111.736 139.188Z" fill="#6CA1FF"/>
<path fill-rule="evenodd" clip-rule="evenodd" d="M60.5124 73.2459H89.2894V63.7291H60.5124V73.2459Z" fill="#19141E"/>
<path fill-rule="evenodd" clip-rule="evenodd" d="M91.7293 119.987C94.0397 119.987 95.9128 118.114 95.9128 115.803V100.296C95.9128 97.9853 94.0397 96.1122 91.7293 96.1122H95.6855C97.9959 96.1122 99.869 97.9853 99.869 100.296V115.803C99.869 118.114 97.9959 119.987 95.6855 119.987H91.7293Z" fill="#19141E"/>
<path opacity="0.401762" d="M25.361 150.2L29.8471 149.846L25.361 150.2ZM20.5216 146.067L20.8749 150.553L20.5216 146.067ZM27.7534 180.583L23.2673 180.936L27.7534 180.583ZM23.6205 185.422L23.9738 189.909H23.9738L23.6205 185.422ZM18.7812 181.29L14.2951 181.643L18.7812 181.29ZM16.3887 150.906L20.8749 150.553L16.3887 150.906ZM31.291 149.693L35.7771 149.34L31.291 149.693ZM26.4517 145.56L26.0984 141.074L26.4517 145.56ZM33.6835 180.076L38.1696 179.723L33.6835 180.076ZM29.5506 184.916L29.9038 189.402H29.9038L29.5506 184.916ZM24.7112 180.783L20.2251 181.136L24.7112 180.783ZM22.3188 150.399L26.8049 150.046L22.3188 150.399ZM29.8471 149.846C29.4569 144.891 25.1236 141.19 20.1684 141.581L20.8749 150.553L29.8471 149.846ZM32.2395 180.23L29.8471 149.846L20.8749 150.553L23.2673 180.936L32.2395 180.23ZM23.9738 189.909C28.929 189.518 32.6297 185.185 32.2395 180.23L23.2673 180.936H23.2673L23.9738 189.909ZM14.2951 181.643C14.6852 186.598 19.0185 190.299 23.9738 189.909L23.2673 180.936L23.2673 180.936L14.2951 181.643ZM11.9026 151.259L14.2951 181.643L23.2673 180.936L20.8749 150.553L11.9026 151.259ZM20.1684 141.581C15.2132 141.971 11.5125 146.304 11.9026 151.259L20.8749 150.553L20.1684 141.581ZM35.7771 149.34C35.387 144.384 31.0537 140.684 26.0984 141.074L26.8049 150.046L35.7771 149.34ZM38.1696 179.723L35.7771 149.34L26.8049 150.046L29.1973 180.43L38.1696 179.723ZM29.9038 189.402C34.859 189.012 38.5597 184.678 38.1696 179.723L29.1973 180.43H29.1973L29.9038 189.402ZM20.2251 181.136C20.6153 186.091 24.9486 189.792 29.9038 189.402L29.1973 180.43L29.1973 180.43L20.2251 181.136ZM17.8327 150.753L20.2251 181.136L29.1973 180.43L26.8049 150.046L17.8327 150.753ZM26.0984 141.074C21.1432 141.464 17.4425 145.797 17.8327 150.753L26.8049 150.046L26.0984 141.074Z" fill="black"/>
<path opacity="0.397763" fill-rule="evenodd" clip-rule="evenodd" d="M91.7448 119.973H80.1937C77.883 119.973 76.0099 118.099 76.0099 115.789V100.281C76.0099 97.9711 77.883 96.098 80.1937 96.098H91.7448C94.0552 96.098 95.9282 97.9711 95.9282 100.281V115.789C95.9282 118.099 94.0552 119.973 91.7448 119.973ZM82.1697 106.835C83.8435 106.835 85.2008 105.478 85.2008 103.804C85.2008 102.13 83.8435 100.773 82.1697 100.773C80.4958 100.773 79.1389 102.13 79.1389 103.804C79.1389 105.478 80.4958 106.835 82.1697 106.835ZM90.7832 106.835C92.457 106.835 93.8143 105.478 93.8143 103.804C93.8143 102.13 92.457 100.773 90.7832 100.773C89.1093 100.773 87.752 102.13 87.752 103.804C87.752 105.478 89.1093 106.835 90.7832 106.835ZM82.1697 115.596C83.8435 115.596 85.2008 114.239 85.2008 112.565C85.2008 110.891 83.8435 109.534 82.1697 109.534C80.4958 109.534 79.1389 110.891 79.1389 112.565C79.1389 114.239 80.4958 115.596 82.1697 115.596Z" fill="black"/>
<path opacity="0.404204" fill-rule="evenodd" clip-rule="evenodd" d="M24.1118 101.957C24.1118 109.165 29.9551 115.009 37.1632 115.009C44.3714 115.009 50.2151 109.165 50.2151 101.957C50.2151 94.7486 44.3714 88.9049 37.1632 88.9049C29.9551 88.9049 24.1118 94.7486 24.1118 101.957Z" fill="black"/>
<path opacity="0.398763" fill-rule="evenodd" clip-rule="evenodd" d="M102.319 148.836L102.157 179.294C102.128 184.613 106.417 188.948 111.736 188.976L125.099 189.048C130.417 189.076 134.752 184.787 134.78 179.468L134.942 149.009C134.971 143.691 130.682 139.356 125.363 139.327L112.001 139.257C106.682 139.228 102.347 143.517 102.319 148.836Z" fill="black"/>
<path opacity="0.397856" fill-rule="evenodd" clip-rule="evenodd" d="M106.832 88.337C108.151 87.8891 109.564 87.6461 111.033 87.6461C118.242 87.6461 124.085 93.4898 124.085 100.698C124.085 107.554 118.799 113.175 112.081 113.708C112.345 111.908 112.481 110.066 112.481 108.192C112.481 100.906 110.413 94.1023 106.832 88.337H106.832Z" fill="black"/>
<path opacity="0.598121" fill-rule="evenodd" clip-rule="evenodd" d="M82.1697 115.593C83.8435 115.593 85.2008 114.236 85.2008 112.562C85.2008 110.888 83.8435 109.531 82.1697 109.531C80.4958 109.531 79.1389 110.888 79.1389 112.562C79.1389 114.236 80.4958 115.593 82.1697 115.593Z" fill="black"/>
<path d="M98.1901 41.4766V16.3562" stroke="#19141E" stroke-width="7"/>
<path fill-rule="evenodd" clip-rule="evenodd" d="M100.451 52.139H90.0638V36.6569H100.451C104.708 36.6569 108.191 40.1402 108.191 44.3978C108.191 48.6553 104.708 52.139 100.451 52.139Z" fill="#19141E"/>
<path fill-rule="evenodd" clip-rule="evenodd" d="M92.6209 11.4274C92.9803 8.6719 95.3368 6.54407 98.1902 6.54407C101.292 6.54407 103.807 9.05877 103.807 12.1608C103.807 15.2628 101.292 17.7775 98.1902 17.7775C95.9215 17.7775 93.9669 16.4323 93.0805 14.4961L89.1635 11.4992L83.8336 15.5771L78.5076 11.4995L73.18 15.5772L67.8539 11.4995L62.5268 15.5772L59.5863 13.3262C59.0498 15.8689 56.7934 17.7775 54.091 17.7775C50.9889 17.7775 48.4742 15.2628 48.4742 12.1608C48.4742 9.05877 50.9889 6.54407 54.091 6.54407C56.6197 6.54407 58.758 8.21521 59.4619 10.5134L62.5268 12.8596L67.8541 8.78182L73.1802 12.8596L78.5078 8.78183L83.834 12.8597L89.1635 8.7821L92.6209 11.4274ZM96.1613 63.5794H55.7325C52.5136 63.5794 49.9043 60.9701 49.9043 57.7512V31.0447C49.9043 27.8258 52.5136 25.2162 55.7325 25.2162H96.1613C99.3802 25.2162 101.989 27.8258 101.989 31.0447V57.7512C101.989 60.9701 99.3802 63.5794 96.1613 63.5794ZM59.5005 68.8657H92.393C93.8529 68.8657 95.0361 67.6824 95.0361 66.2226C95.0361 64.7627 93.8529 63.5795 92.393 63.5795H59.5005C58.041 63.5795 56.8574 64.7627 56.8574 66.2226C56.8574 67.6824 58.041 68.8657 59.5005 68.8657Z" fill="#6CA1FF"/>
<path opacity="0.404367" d="M67.8539 11.4995L62.5268 15.5772L59.5865 13.3478L59.4479 10.5037L62.5268 12.8596L67.8541 8.78181L73.1802 12.8596L78.5078 8.78183L83.834 12.8597L89.1635 8.7821L92.5735 11.4992L93.1406 14.5144L89.1635 11.4992L83.8336 15.5771L78.5076 11.4995L73.18 15.5772L67.8539 11.4995Z" fill="black"/>
<path opacity="0.395624" fill-rule="evenodd" clip-rule="evenodd" d="M92.393 68.8657H59.5005C58.041 68.8657 56.8574 67.6824 56.8574 66.2226C56.8574 64.7627 58.041 63.5795 59.5005 63.5795H92.393C93.8529 63.5795 95.0361 64.7627 95.0361 66.2226C95.0361 67.6824 93.8529 68.8657 92.393 68.8657Z" fill="black"/>
<path fill-rule="evenodd" clip-rule="evenodd" d="M48.0373 52.139H58.4238V36.6569H48.0373C43.7798 36.6569 40.2961 40.1402 40.2961 44.3978C40.2961 48.6553 43.7798 52.139 48.0373 52.139Z" fill="#19141E"/>
<path fill-rule="evenodd" clip-rule="evenodd" d="M98.1901 44.3978C98.1901 50.3177 94.3562 55.1169 89.6271 55.1169C84.898 55.1169 81.0645 50.3177 81.0645 44.3978C81.0645 38.4778 84.898 33.6786 89.6271 33.6786C94.3562 33.6786 98.1901 38.4778 98.1901 44.3978Z" fill="#19141E"/>
<path fill-rule="evenodd" clip-rule="evenodd" d="M85.6033 55.1169H89.6271V33.6786H85.6033V55.1169Z" fill="#19141E"/>
<path fill-rule="evenodd" clip-rule="evenodd" d="M94.1661 44.3978C94.1661 50.3177 90.3326 55.1169 85.6031 55.1169C80.874 55.1169 77.0405 50.3177 77.0405 44.3978C77.0405 38.4778 80.874 33.6786 85.6031 33.6786C90.3326 33.6786 94.1661 38.4778 94.1661 44.3978Z" fill="white"/>
<path fill-rule="evenodd" clip-rule="evenodd" d="M89.9869 43.6785C89.9869 45.7623 88.6375 47.452 86.9726 47.452C85.3078 47.452 83.9584 45.7623 83.9584 43.6785C83.9584 41.5946 85.3078 39.905 86.9726 39.905C88.6375 39.905 89.9869 41.5946 89.9869 43.6785Z" fill="#19141E"/>
<path d="M54.0908 41.4766V17.5135" stroke="#19141E" stroke-width="7"/>
</svg>
