<svg width="48" height="48" viewBox="0 0 48 48" fill="none" xmlns="http://www.w3.org/2000/svg">
<path d="M16.8571 37.632L9.69604 41.5381C9.27581 41.7672 8.89815 42.0489 8.54675 42.3559C12.7218 45.8762 18.1114 48 24 48C29.8452 48 35.2003 45.9079 39.3637 42.4356C38.9797 42.1114 38.563 41.8198 38.1012 41.5897L30.4329 37.7561C29.4421 37.2607 28.8163 36.2481 28.8163 35.1405V32.1319C29.0319 31.8865 29.2782 31.5713 29.5418 31.1991C30.5869 29.7229 31.3775 28.099 31.9255 26.3955C32.909 26.0921 33.6335 25.1837 33.6335 24.1041V20.8927C33.6335 20.1863 33.3193 19.555 32.8311 19.1131V14.4706C32.8311 14.4706 33.7848 7.24619 24.0009 7.24619C14.2171 7.24619 15.1708 14.4706 15.1708 14.4706V19.1131C14.6817 19.555 14.3683 20.1863 14.3683 20.8927V24.1041C14.3683 24.95 14.813 25.6945 15.4787 26.1247C16.2811 29.6178 18.3822 32.1319 18.3822 32.1319V35.0663C18.3813 36.1349 17.7963 37.1194 16.8571 37.632Z" fill="white"/>
<path d="M24.4102 0.00363492C11.1577 -0.22278 0.229991 10.3372 0.00357625 23.5897C-0.125028 31.104 3.2241 37.8575 8.55663 42.3487C8.90531 42.0444 9.27935 41.7654 9.69505 41.539L16.8561 37.6329C17.7953 37.1203 18.3803 36.1359 18.3803 35.0654V32.131C18.3803 32.131 16.2783 29.6169 15.4768 26.1238C14.812 25.6936 14.3664 24.95 14.3664 24.1033V20.8918C14.3664 20.1854 14.6807 19.5541 15.1689 19.1122V14.4697C15.1689 14.4697 14.2152 7.24529 23.999 7.24529C33.7829 7.24529 32.8292 14.4697 32.8292 14.4697V19.1122C33.3183 19.5541 33.6316 20.1854 33.6316 20.8918V24.1033C33.6316 25.1828 32.9071 26.0912 31.9236 26.3946C31.3757 28.0981 30.585 29.722 29.5399 31.1982C29.2763 31.5704 29.03 31.8856 28.8144 32.131V35.1396C28.8144 36.2473 29.4403 37.2607 30.431 37.7552L38.0993 41.5888C38.5594 41.8189 38.975 42.1096 39.3581 42.4329C44.5295 38.1202 47.8704 31.6719 47.9945 24.4103C48.2227 11.1577 37.6636 0.23005 24.4102 0.00363492Z" fill="#3145F2"/>
</svg>
